<svg width="161" height="62" viewBox="0 0 161 62" fill="none" xmlns="http://www.w3.org/2000/svg">
<g filter="url(#filter0_d)">
<path d="M31 46C41.4934 46 50 37.4934 50 27C50 16.5066 41.4934 8 31 8C20.5066 8 12 16.5066 12 27C12 37.4934 20.5066 46 31 46Z" fill="#18132A"/>
<path fill-rule="evenodd" clip-rule="evenodd" d="M31 44.3375C40.5752 44.3375 48.3375 36.5752 48.3375 27C48.3375 17.4248 40.5752 9.6625 31 9.6625C21.4248 9.6625 13.6625 17.4248 13.6625 27C13.6625 36.5752 21.4248 44.3375 31 44.3375ZM50 27C50 37.4934 41.4934 46 31 46C20.5066 46 12 37.4934 12 27C12 16.5066 20.5066 8 31 8C41.4934 8 50 16.5066 50 27Z" fill="url(#paint0_linear)"/>
<path d="M42.1431 21.5079C41.8007 21.1655 41.2455 21.1654 40.9029 21.5079C40.6682 21.7427 40.3887 21.9271 40.0846 22.0717L35.9282 17.9153C36.0728 17.6112 36.2572 17.3317 36.492 17.097C36.8345 16.7545 36.8345 16.1993 36.492 15.8568C36.1496 15.5144 35.5943 15.5144 35.2519 15.8568C33.708 17.4007 33.5232 19.9183 33.7809 22.083C28.3475 21.4404 25.3894 23.9165 26.083 29.781C23.9197 29.5234 21.4011 29.7076 19.8568 31.2519C19.5144 31.5943 19.5144 32.1496 19.8568 32.4921C20.1992 32.8345 20.7545 32.8345 21.097 32.4921C21.3318 32.2573 21.6112 32.0729 21.9154 31.9282L26.0717 36.0845C25.9253 36.3923 25.7403 36.6707 25.508 36.9031C25.1656 37.2455 25.1656 37.8007 25.508 38.1432C25.8504 38.4857 26.4057 38.4857 26.7482 38.1432C28.292 36.5994 28.4768 34.0818 28.2191 31.9171C33.6525 32.5595 36.6107 30.0837 35.917 24.2191C38.0776 24.4763 40.599 24.2923 42.1431 22.7482C42.4855 22.4055 42.4855 21.8504 42.1431 21.5079ZM26.5407 34.0731L23.9273 31.4597C24.7457 31.405 25.6153 31.4678 26.408 31.5978C26.5171 32.2477 26.6034 33.1573 26.5407 34.0731ZM27.8996 30.1002C27.7693 29.3036 27.708 28.4338 27.7622 27.6246L30.3752 30.2376C29.5595 30.2921 28.6919 30.2298 27.8996 30.1002ZM32.387 29.7693L28.2306 25.6128C28.53 24.9831 28.9505 24.5455 29.6127 24.2306L33.7692 28.387C33.4698 29.0167 33.0492 29.4543 32.387 29.7693ZM34.2377 26.3751L31.6247 23.7622C32.4403 23.7076 33.3078 23.7699 34.1002 23.8995C34.2306 24.696 34.2919 25.5659 34.2377 26.3751ZM35.5971 22.4027C35.4668 21.606 35.4055 20.7364 35.4597 19.9271L38.0726 22.5401C37.2572 22.5946 36.3895 22.5324 35.5971 22.4027Z" fill="url(#paint1_linear)"/>
<path fill-rule="evenodd" clip-rule="evenodd" d="M144.728 34.7166H149V23.544H144.728V34.7166ZM146.864 22.9266C148.073 22.9266 148.99 22.0765 148.99 20.9633C148.99 19.8501 148.073 19 146.864 19C145.655 19 144.738 19.8501 144.738 20.9633C144.738 22.0765 145.655 22.9266 146.864 22.9266ZM96.9484 19.8602C92.3011 19.8602 89.3731 22.7546 89.3731 27.42C89.3731 32.0854 92.2907 34.9696 96.9484 34.9696C101.596 34.9696 104.524 32.0854 104.524 27.42C104.524 22.7546 101.596 19.8602 96.9484 19.8602ZM96.9484 23.2808C98.7927 23.2808 100.022 24.8899 100.022 27.42C100.022 29.9399 98.8032 31.549 96.9484 31.549C95.0937 31.549 93.8745 29.9399 93.8745 27.42C93.8745 24.8899 95.1041 23.2808 96.9484 23.2808ZM66.418 31.3061H72.6075V34.7166H62V20.1132H72.6075V23.5237H66.418V25.8817H72.2219V28.9583H66.418V31.3061ZM88.8 20.1132L84.2361 34.7166H78.5051L73.9412 20.1132H79.0261L81.4331 30.6483H81.5165L83.9235 20.1132H88.8ZM128.08 27.7641C128.007 26.7622 127.288 26.1145 126.287 26.1145C125.318 26.1145 124.579 26.8027 124.495 27.7641H128.08ZM126.392 32.1562C127.256 32.1562 127.955 31.7615 128.205 31.0936H132.008C131.654 33.5022 129.486 35 126.329 35C122.557 35 120.317 32.8242 120.317 29.191C120.317 25.5376 122.578 23.2606 126.194 23.2606C129.757 23.2606 132.06 25.4668 132.06 28.8874V30.0108H124.433V30.2739C124.433 31.3669 125.245 32.1562 126.392 32.1562ZM105.861 20H112.368C113.839 20 115.134 20.3071 116.253 20.9214C117.384 21.5214 118.258 22.3857 118.874 23.5143C119.503 24.6429 119.817 25.9714 119.817 27.5C119.817 29.0286 119.503 30.3571 118.874 31.4857C118.258 32.6143 117.384 33.4857 116.253 34.1C115.134 34.7 113.839 35 112.368 35H105.861V20ZM112.179 31.0571C113.135 31.0571 113.895 30.75 114.461 30.1357C115.039 29.5071 115.329 28.6286 115.329 27.5C115.329 26.3714 115.039 25.5 114.461 24.8857C113.895 24.2571 113.135 23.9429 112.179 23.9429H110.312V31.0571H112.179ZM137.324 26.3857V23.8143H143.741V20H132.776V34.7306H137.324V30.2H142.951V26.3857H137.324Z" fill="white"/>
</g>
<path d="M61.893 56H65.295C66.4243 56 67.3087 55.727 67.948 55.181C68.592 54.635 68.914 53.8767 68.914 52.906C68.914 52.0847 68.6807 51.4197 68.214 50.911C67.7473 50.4023 67.0847 50.0897 66.226 49.973C67.3367 49.511 67.892 48.643 67.892 47.369C67.892 46.4217 67.5793 45.6983 66.954 45.199C66.3333 44.6997 65.4607 44.45 64.336 44.45H61.893V56ZM62.957 49.644V45.297H64.147C65.0243 45.297 65.6987 45.486 66.17 45.864C66.6413 46.2373 66.877 46.774 66.877 47.474C66.877 48.1693 66.6413 48.706 66.17 49.084C65.6987 49.4573 65.0243 49.644 64.147 49.644H62.957ZM62.957 55.132V50.582H65.015C65.9063 50.582 66.597 50.785 67.087 51.191C67.5817 51.5923 67.829 52.1547 67.829 52.878C67.829 53.5967 67.584 54.152 67.094 54.544C66.6087 54.936 65.9157 55.132 65.015 55.132H62.957ZM71.0831 56H72.1051V51.268C72.1051 50.9647 72.1961 50.68 72.3781 50.414C72.5648 50.1433 72.8051 49.924 73.0991 49.756C73.3978 49.588 73.7105 49.504 74.0371 49.504C74.3965 49.504 74.7278 49.5763 75.0311 49.721L75.4511 48.86C75.1011 48.692 74.6998 48.608 74.2471 48.608C73.2811 48.608 72.5671 49.035 72.1051 49.889V48.832H71.0831V56ZM77.8488 47.397C78.0355 47.397 78.1942 47.3317 78.3248 47.201C78.4555 47.0703 78.5208 46.9117 78.5208 46.725C78.5208 46.5383 78.4555 46.382 78.3248 46.256C78.1942 46.1253 78.0355 46.06 77.8488 46.06C77.6622 46.06 77.5035 46.1253 77.3728 46.256C77.2468 46.382 77.1838 46.5383 77.1838 46.725C77.1838 46.9117 77.2468 47.0703 77.3728 47.201C77.5035 47.3317 77.6622 47.397 77.8488 47.397ZM77.3378 56H78.3598V48.832H77.3378V56ZM84.437 56.224C85.0717 56.224 85.648 56.07 86.166 55.762C86.6887 55.454 87.1017 55.0293 87.405 54.488V56H88.427V43.953H87.405V50.323C87.111 49.7863 86.705 49.3663 86.187 49.063C85.669 48.7597 85.0904 48.608 84.451 48.608C83.765 48.608 83.1514 48.7737 82.61 49.105C82.0734 49.4317 81.6487 49.882 81.336 50.456C81.0234 51.03 80.867 51.6833 80.867 52.416C80.867 53.1533 81.0234 53.809 81.336 54.383C81.6534 54.957 82.0804 55.4073 82.617 55.734C83.1584 56.0607 83.765 56.224 84.437 56.224ZM84.682 55.335C84.1454 55.335 83.6694 55.209 83.254 54.957C82.8387 54.705 82.512 54.3597 82.274 53.921C82.0407 53.4823 81.924 52.983 81.924 52.423C81.924 51.8537 82.043 51.3497 82.281 50.911C82.519 50.4677 82.8457 50.1223 83.261 49.875C83.6764 49.623 84.1524 49.497 84.689 49.497C85.2257 49.497 85.6994 49.623 86.11 49.875C86.5254 50.1223 86.852 50.4677 87.09 50.911C87.328 51.3497 87.447 51.8537 87.447 52.423C87.447 52.9877 87.328 53.4893 87.09 53.928C86.852 54.3667 86.5254 54.712 86.11 54.964C85.6947 55.2113 85.2187 55.335 84.682 55.335ZM94.6045 59.85C95.8039 59.85 96.7512 59.5373 97.4465 58.912C98.1419 58.2867 98.4895 57.3813 98.4895 56.196V48.832H97.4675V50.323C97.1782 49.7863 96.7745 49.3663 96.2565 49.063C95.7385 48.7597 95.1599 48.608 94.5205 48.608C93.8345 48.608 93.2209 48.7737 92.6795 49.105C92.1429 49.4317 91.7182 49.882 91.4055 50.456C91.0929 51.03 90.9365 51.6833 90.9365 52.416C90.9365 53.1533 91.0929 53.809 91.4055 54.383C91.7229 54.957 92.1499 55.4073 92.6865 55.734C93.2279 56.0607 93.8322 56.224 94.4995 56.224C95.1389 56.224 95.7175 56.07 96.2355 55.762C96.7582 55.454 97.1689 55.0293 97.4675 54.488V56.238C97.4675 56.812 97.3415 57.3043 97.0895 57.715C96.8422 58.1257 96.5015 58.4383 96.0675 58.653C95.6382 58.8723 95.1505 58.982 94.6045 58.982C93.9559 58.982 93.3772 58.835 92.8685 58.541C92.3599 58.2517 91.9959 57.8597 91.7765 57.365L90.9155 57.764C91.5362 59.1547 92.7659 59.85 94.6045 59.85ZM94.7445 55.335C94.2125 55.335 93.7389 55.209 93.3235 54.957C92.9082 54.705 92.5815 54.3597 92.3435 53.921C92.1055 53.4823 91.9865 52.983 91.9865 52.423C91.9865 51.8537 92.1055 51.3497 92.3435 50.911C92.5815 50.4677 92.9082 50.1223 93.3235 49.875C93.7435 49.623 94.2195 49.497 94.7515 49.497C95.2882 49.497 95.7642 49.623 96.1795 49.875C96.5949 50.1223 96.9215 50.4677 97.1595 50.911C97.3975 51.3497 97.5165 51.8537 97.5165 52.423C97.5165 52.9877 97.3975 53.4893 97.1595 53.928C96.9215 54.3667 96.5949 54.712 96.1795 54.964C95.7642 55.2113 95.2859 55.335 94.7445 55.335ZM104.795 56.224C105.509 56.224 106.157 56.07 106.741 55.762C107.329 55.454 107.793 55.0223 108.134 54.467L107.378 54.061C106.78 54.9383 105.933 55.377 104.837 55.377C104.267 55.377 103.761 55.2557 103.318 55.013C102.874 54.7657 102.527 54.4273 102.275 53.998C102.027 53.564 101.904 53.0693 101.904 52.514H108.358C108.367 52.4627 108.372 52.4183 108.372 52.381C108.376 52.3437 108.379 52.2993 108.379 52.248C108.36 51.534 108.187 50.904 107.861 50.358C107.539 49.8073 107.1 49.378 106.545 49.07C105.994 48.762 105.364 48.608 104.655 48.608C104.137 48.608 103.649 48.706 103.192 48.902C102.739 49.098 102.34 49.371 101.995 49.721C101.649 50.071 101.379 50.4793 101.183 50.946C100.987 51.408 100.889 51.9073 100.889 52.444C100.889 53.158 101.057 53.802 101.393 54.376C101.733 54.9453 102.198 55.3957 102.786 55.727C103.374 56.0583 104.043 56.224 104.795 56.224ZM101.96 51.744C102.02 51.2913 102.174 50.8947 102.422 50.554C102.674 50.2087 102.993 49.9403 103.381 49.749C103.768 49.553 104.197 49.455 104.669 49.455C105.131 49.455 105.553 49.553 105.936 49.749C106.318 49.945 106.636 50.2157 106.888 50.561C107.14 50.9063 107.296 51.3007 107.357 51.744H101.96Z" fill="#9FA7FF"/>
<defs>
<filter id="filter0_d" x="0" y="0" width="161" height="62" filterUnits="userSpaceOnUse" color-interpolation-filters="sRGB">
<feFlood flood-opacity="0" result="BackgroundImageFix"/>
<feColorMatrix in="SourceAlpha" type="matrix" values="0 0 0 0 0 0 0 0 0 0 0 0 0 0 0 0 0 0 127 0" result="hardAlpha"/>
<feOffset dy="4"/>
<feGaussianBlur stdDeviation="6"/>
<feComposite in2="hardAlpha" operator="out"/>
<feColorMatrix type="matrix" values="0 0 0 0 0.184314 0 0 0 0 0.0627451 0 0 0 0 0.52549 0 0 0 0.25 0"/>
<feBlend mode="normal" in2="BackgroundImageFix" result="effect1_dropShadow"/>
<feBlend mode="normal" in="SourceGraphic" in2="effect1_dropShadow" result="shape"/>
</filter>
<linearGradient id="paint0_linear" x1="57.9675" y1="7.99985" x2="11.9999" y2="53.9678" gradientUnits="userSpaceOnUse">
<stop stop-color="#1C33FF"/>
<stop offset="0.501495" stop-color="#790BE7"/>
<stop offset="1" stop-color="#FF39C8"/>
</linearGradient>
<linearGradient id="paint1_linear" x1="47.1804" y1="15.5999" x2="19.5998" y2="43.1806" gradientUnits="userSpaceOnUse">
<stop stop-color="#1C33FF"/>
<stop offset="0.501495" stop-color="#790BE7"/>
<stop offset="1" stop-color="#FF39C8"/>
</linearGradient>
</defs>
</svg>
